<svg width="24" height="22" viewBox="0 0 24 22" fill="none" xmlns="http://www.w3.org/2000/svg">
<path fill-rule="evenodd" clip-rule="evenodd" d="M1.77778 0C1.07208 0 0.5 0.703552 0.5 1.57143C0.5 2.4393 1.07208 3.14286 1.77778 3.14286H22.2222C22.9279 3.14286 23.5 2.4393 23.5 1.57143C23.5 0.703552 22.9279 0 22.2222 0H1.77778ZM0.5 11C0.5 10.1321 1.07208 9.42857 1.77778 9.42857H22.2222C22.9279 9.42857 23.5 10.1321 23.5 11C23.5 11.8679 22.9279 12.5714 22.2222 12.5714H1.77778C1.07208 12.5714 0.5 11.8679 0.5 11ZM0.5 20.4286C0.5 19.5607 1.07208 18.8571 1.77778 18.8571H22.2222C22.9279 18.8571 23.5 19.5607 23.5 20.4286C23.5 21.2964 22.9279 22 22.2222 22H1.77778C1.07208 22 0.5 21.2964 0.5 20.4286Z" fill="#006C40"/>
</svg>
