<svg width="25" height="27" viewBox="0 0 25 27" fill="none" xmlns="http://www.w3.org/2000/svg">
<path d="M2.5 26H7.16667C7.99509 26 8.66667 25.3284 8.66667 24.5V18.3537C8.66667 17.5252 9.33824 16.8537 10.1667 16.8537H14.8333C15.6618 16.8537 16.3333 17.5252 16.3333 18.3537V24.5C16.3333 25.3284 17.0049 26 17.8333 26H22.5C23.3284 26 24 25.3284 24 24.5V10.2912C24 9.81648 23.7753 9.36976 23.3941 9.08679L13.3941 1.66367C12.8632 1.26958 12.1368 1.26958 11.6059 1.66367L1.60594 9.08679C1.22474 9.36976 1 9.81648 1 10.2912V24.5C1 25.3284 1.67157 26 2.5 26Z" stroke="#006C40" stroke-width="2" stroke-linecap="round"/>
</svg>
