<svg width="17" height="22" viewBox="0 0 17 22" fill="none" xmlns="http://www.w3.org/2000/svg">
<path fill-rule="evenodd" clip-rule="evenodd" d="M7.5 0C6.39543 0 5.5 0.93807 5.5 2.09524V3.14286H1C0.447715 3.14286 0 3.61189 0 4.19048C0 4.76906 0.447715 5.23809 1 5.23809H5.5H6.5H10.5H11.5H16C16.5523 5.23809 17 4.76906 17 4.19048C17 3.61189 16.5523 3.14286 16 3.14286H11.5V2.09524C11.5 0.93807 10.6046 0 9.5 0H7.5ZM9.5 3.14286V2.09524L7.5 2.09524V3.14286H9.5ZM0.668591 9.66962C0.534562 7.84427 1.91222 6.28571 3.65975 6.28571H13.3402C15.0878 6.28571 16.4654 7.84426 16.3314 9.66962L15.6391 19.0982C15.5189 20.7356 14.2155 22 12.6479 22H4.35206C2.78445 22 1.48113 20.7356 1.3609 19.0982L0.668591 9.66962ZM3.65975 8.38095C3.07725 8.38095 2.61802 8.90047 2.6627 9.50892L3.35501 18.9375C3.39508 19.4833 3.82953 19.9048 4.35206 19.9048H12.6479C13.1705 19.9048 13.6049 19.4833 13.645 18.9375L14.3373 9.50892C14.382 8.90047 13.9228 8.38095 13.3402 8.38095H3.65975Z" fill="#006C40"/>
<path d="M3.6405 12.124C3.5659 11.5272 4.03128 11 4.63278 11H12.3672C12.9687 11 13.4341 11.5272 13.3595 12.124L12.6095 18.124C12.5469 18.6245 12.1215 19 11.6172 19H5.38278C4.87846 19 4.45306 18.6245 4.3905 18.124L3.6405 12.124Z" fill="#006C40"/>
</svg>
