<svg width="27" height="28" viewBox="0 0 27 28" fill="none" xmlns="http://www.w3.org/2000/svg">
<mask id="path-1-inside-1_150_185" fill="white">
<path fill-rule="evenodd" clip-rule="evenodd" d="M24.4808 28C25.1736 28 25.838 27.6508 26.1237 27.0197C26.5748 26.0228 26.7637 24.9798 26.4207 23.917C24.7397 18.7071 19.5909 15.1687 13.5 15.1687C7.54895 15.1687 2.49727 18.8767 0.700531 24.0243C0.345923 25.0403 0.481148 26.0344 0.878462 26.991C1.14822 27.6405 1.82405 28 2.52732 28H24.4808Z"/>
</mask>
<path d="M26.4207 23.917L24.7553 24.4543L24.7553 24.4543L26.4207 23.917ZM0.700531 24.0243L-0.951713 23.4476L-0.951714 23.4476L0.700531 24.0243ZM26.1237 27.0197L24.5293 26.2982L26.1237 27.0197ZM24.7553 24.4543C24.922 24.971 24.8681 25.5495 24.5293 26.2982L27.718 27.7411C28.2814 26.496 28.6053 24.9885 28.0862 23.3796L24.7553 24.4543ZM13.5 16.9187C18.9264 16.9187 23.3354 20.0537 24.7553 24.4543L28.0862 23.3796C26.1441 17.3604 20.2554 13.4187 13.5 13.4187V16.9187ZM2.35277 24.601C3.9003 20.1674 8.28105 16.9187 13.5 16.9187V13.4187C6.81686 13.4187 1.09424 17.586 -0.951713 23.4476L2.35277 24.601ZM2.49461 26.3198C2.21135 25.6378 2.1784 25.1006 2.35277 24.601L-0.951714 23.4476C-1.48656 24.9799 -1.24906 26.431 -0.737684 27.6623L2.49461 26.3198ZM2.52732 29.75H24.4808V26.25H2.52732V29.75ZM-0.737684 27.6623C-0.138464 29.105 1.28202 29.75 2.52732 29.75V26.25C2.49984 26.25 2.47565 26.2464 2.45671 26.2414C2.43772 26.2364 2.42859 26.2313 2.42811 26.231C2.42801 26.2309 2.43833 26.237 2.45307 26.2534C2.46862 26.2707 2.48384 26.2938 2.49461 26.3198L-0.737684 27.6623ZM24.5293 26.2982C24.5387 26.2773 24.5515 26.259 24.5639 26.2457C24.5757 26.2331 24.5831 26.2292 24.5812 26.2302C24.579 26.2315 24.569 26.2368 24.5501 26.2417C24.5313 26.2465 24.5077 26.25 24.4808 26.25V29.75C25.7162 29.75 27.0938 29.1205 27.718 27.7411L24.5293 26.2982Z" fill="#006C40" mask="url(#path-1-inside-1_150_185)"/>
<path d="M19.125 6.74074C19.125 10.0106 16.5769 12.6065 13.5 12.6065C10.4231 12.6065 7.875 10.0106 7.875 6.74074C7.875 3.47092 10.4231 0.875 13.5 0.875C16.5769 0.875 19.125 3.47092 19.125 6.74074Z" stroke="#006C40" stroke-width="1.75"/>
</svg>
