<svg width="124" height="21" viewBox="0 0 124 21" fill="none" xmlns="http://www.w3.org/2000/svg">
<g clip-path="url(#clip0_154_335)">
<path d="M0.877773 14.8161C2.16305 14.8161 3.47968 14.8789 4.76496 14.8161C5.9562 14.7534 7.08474 14.5022 7.30418 12.9955C7.49227 11.5202 6.89665 10.6413 5.26654 10.139C4.51418 9.91928 3.76182 9.73094 3.04081 9.44843C0.626987 8.53811 -0.156721 7.28251 0.062717 4.7713C0.219459 2.66816 1.75553 0.941704 3.85586 0.565022C4.60822 0.408071 5.42328 0.376681 6.20699 0.376681C41.5679 0.376681 76.9288 0.376681 112.29 0.345291C113.794 0.345291 114.484 0.878923 114.766 2.47982C114.077 2.47982 113.418 2.47982 112.76 2.47982C77.399 2.47982 42.0381 2.47982 6.67721 2.51121C5.73676 2.51121 4.63957 2.66816 3.85586 3.10762C2.1944 4.01794 2.35114 6.12107 4.0753 6.90583C5.1098 7.37668 6.20699 7.72197 7.27283 8.16143C9.21642 9.00897 9.96878 10.5785 9.78069 13.2152C9.6553 15.0045 8.49541 16.5112 6.64586 16.8565C5.23519 17.139 3.69912 17.2646 2.3198 17.0762C1.66148 16.9821 1.12856 15.8834 0.56429 15.2556C0.658335 15.0987 0.75238 14.9731 0.877773 14.8161Z" fill="#006C40"/>
<path d="M116.71 6.52914C115.268 6.52914 113.951 6.46636 112.634 6.52914C111.318 6.59192 110.221 7.09417 110.095 8.5695C109.97 9.98206 110.785 10.7982 112.07 11.2063C112.823 11.426 113.575 11.583 114.327 11.8655C116.678 12.6816 117.713 14.2511 117.431 16.4798C117.149 18.9282 115.424 20.7175 113.105 20.9372C112.634 21 112.164 20.9686 111.694 20.9686C76.1764 20.9686 40.6588 20.9686 5.14112 21C3.57371 21 2.85269 20.4664 2.69595 18.8027C3.32292 18.8027 3.94989 18.8027 4.5455 18.8027C39.8437 18.8027 75.1733 18.8027 110.471 18.8027C110.942 18.8027 111.412 18.8027 111.882 18.8027C113.481 18.7713 114.547 17.9552 114.703 16.6368C114.892 15.1614 113.951 14.5964 112.791 14.1883C112.102 13.9372 111.443 13.5919 110.754 13.4036C108.026 12.6502 107.399 10.2646 107.744 7.97309C108.058 5.58744 109.531 4.4574 112.227 4.26905C112.791 4.23766 113.387 4.30044 113.951 4.20627C115.707 3.89237 116.428 4.80269 116.71 6.52914Z" fill="#006C40"/>
<path d="M58.5273 4.42601C58.5273 8.69507 58.5273 12.8386 58.5273 17.1076C57.8063 17.1076 57.148 17.1076 56.3016 17.1076C56.3016 14.565 56.3016 12.0224 56.3016 9.47983C56.1762 9.44844 56.0508 9.41705 55.9254 9.38565C55.2357 11.0493 54.6088 12.7758 53.8251 14.3767C53.5743 14.9103 52.9473 15.4126 52.383 15.6323C51.4426 15.9776 51.1605 15.1614 50.8783 14.4709C50.1573 12.7758 49.4677 11.0807 48.4018 9.44844C48.4018 11.9596 48.4018 14.4709 48.4018 17.0762C47.5868 17.0762 46.9284 17.0762 46.2074 17.0762C46.2074 12.87 46.2074 8.69507 46.2074 4.55157C48.6839 3.89238 48.9974 4.04933 49.9065 6.30942C50.6589 8.22422 51.4739 10.139 52.4144 12.3991C53.2921 10.2018 54.0445 8.34978 54.7969 6.52915C55.7373 4.1435 55.7373 4.1435 58.5273 4.42601Z" fill="#006C40"/>
<path d="M34.2951 16.9821C34.2951 16.574 34.4832 16.009 34.2637 15.7265C32.5709 13.3408 33.1665 10.6413 33.386 8.13005C33.6054 5.36771 36.4895 3.60987 39.3108 4.1435C40.5647 4.36323 41.756 5.11659 43.0413 4.30045C43.1667 4.23767 43.4174 4.36323 43.1667 4.52018C43.292 5.43049 43.4801 6.34081 43.4801 7.25112C43.5115 9.57399 43.7623 11.9596 43.3861 14.2197C43.0413 16.2287 40.5961 17.4843 38.339 17.3274C37.0224 17.296 35.7057 17.139 34.2951 16.9821ZM40.5647 7C38.6838 5.74439 36.3954 5.99552 36.0192 7.6278C35.6117 9.57399 35.7684 11.6457 35.6744 13.6547C35.8625 13.6861 36.0192 13.6861 36.2073 13.7175C37.6493 11.5202 39.0914 9.29148 40.5647 7ZM37.0224 14.8475C39.0914 15.6637 41.035 15.0045 41.2544 13.4036C41.4738 11.8655 41.2858 10.2646 41.2858 8.22422C39.7183 10.704 38.4017 12.7444 37.0224 14.8475Z" fill="#006C40"/>
<path d="M61.3487 4.30045C63.2296 4.30045 65.0164 4.30045 66.7719 4.30045C68.3707 4.30045 69.8127 4.58296 70.5024 6.27802C71.192 7.9417 70.5337 9.19731 69.2798 10.2332C71.098 11.8341 71.5682 13.0897 70.9413 14.722C70.3456 16.3543 68.9663 17.139 66.6152 17.139C64.891 17.139 63.1669 17.139 61.3173 17.139C61.3487 12.9013 61.3487 8.69507 61.3487 4.30045ZM63.7311 15.0673C64.9851 15.0673 66.145 15.13 67.3049 15.0359C68.2767 14.9731 68.9036 14.2511 68.6528 13.3408C68.4647 12.6816 67.8378 11.8341 67.2422 11.7085C66.145 11.4574 64.9224 11.6457 63.7311 11.6457C63.7311 12.87 63.7311 13.9372 63.7311 15.0673ZM63.7311 9.60538C64.8283 9.60538 65.9255 9.79372 66.866 9.5426C67.4929 9.35426 68.214 8.53812 68.308 7.91031C68.3707 7.47085 67.5243 6.56054 66.96 6.43498C65.9569 6.18385 64.8597 6.3722 63.7625 6.3722C63.7311 7.47085 63.7311 8.47534 63.7311 9.60538Z" fill="#006C40"/>
<path d="M21.8498 4.36323C23.9188 4.36323 25.8937 4.26906 27.8373 4.39462C29.5928 4.52018 30.8781 5.80718 31.2229 7.37669C31.6304 9.2287 30.8781 10.7354 28.7777 12.148C29.7495 13.7175 30.7213 15.287 31.7245 16.8879C29.6242 17.4843 29.4674 17.4215 28.4016 15.7265C28.0254 15.0987 27.5552 14.5336 27.2417 13.8744C26.6461 12.5875 25.737 12.0852 24.2009 12.5874C24.2009 14 24.2009 15.4753 24.2009 17.0762C23.3231 17.0762 22.6335 17.0762 21.8184 17.0762C21.8498 12.8386 21.8498 8.63229 21.8498 4.36323ZM24.2636 10.7668C25.9251 10.2646 27.3671 9.95068 28.5897 9.32288C28.8718 9.16592 28.8718 7.56503 28.4643 7.09417C27.3671 5.77579 25.7683 6.24664 24.2322 6.34081C24.2636 7.69059 24.2636 8.88341 24.2636 10.7668Z" fill="#006C40"/>
<path d="M91.6625 12.148C92.697 13.8431 93.6374 15.3812 94.6406 16.9821C92.9164 17.4843 91.8192 17.1076 91.1296 15.5381C90.8788 14.9103 90.3145 14.4395 90.0637 13.8117C89.5308 12.5247 88.6217 12.1166 87.0856 12.5561C87.0856 13.9686 87.0856 15.5067 87.0856 17.1076C86.1765 17.1076 85.5182 17.1076 84.7345 17.1076C84.7345 12.87 84.7345 8.66368 84.7345 4.36323C86.7408 4.36323 88.7157 4.26906 90.6907 4.39462C92.3208 4.52018 93.512 5.49328 93.9823 7.09417C94.4838 8.85202 93.9196 10.4843 92.5089 11.5516C92.2581 11.7713 92.0073 11.9283 91.6625 12.148ZM87.1483 10.3274C88.7784 10.0762 90.5026 10.9552 91.4744 9.29148C91.7879 8.75785 91.7565 7.59642 91.3804 7.12556C90.2832 5.7444 88.6844 6.24664 87.1483 6.27803C87.1483 7.6592 87.1483 8.88341 87.1483 10.3274Z" fill="#006C40"/>
<path d="M106.145 8.44395C104.954 8.63229 104.17 8.66368 103.606 7.28252C103.105 6.02691 101.663 5.96413 100.44 6.27803C99.2801 6.56054 98.5277 7.37669 98.4964 8.63229C98.4651 9.98207 98.4337 11.3632 98.4964 12.713C98.5591 14.2197 99.6876 15.2556 101.286 15.287C102.885 15.3498 103.669 14.6278 103.951 12.8072C103.418 12.713 102.854 12.6188 102.258 12.4933C102.258 11.8341 102.258 11.1749 102.258 10.4529C103.575 10.4529 104.797 10.4529 106.208 10.4529C106.208 11.6457 106.365 12.7758 106.177 13.8744C105.801 16.1659 103.763 17.5157 101.161 17.3588C98.1516 17.1704 96.3334 15.6951 96.208 13.1839C96.1453 11.4574 96.1139 9.73095 96.2707 8.00449C96.4901 5.49328 98.9353 3.79821 101.725 4.04933C104.766 4.36323 106.271 5.80718 106.145 8.44395Z" fill="#006C40"/>
<path d="M82.1639 4.39462C82.1639 5.05382 82.1639 5.58745 82.1639 6.30942C80.0322 6.30942 77.9633 6.30942 75.7689 6.30942C75.7689 7.43947 75.7689 8.38117 75.7689 9.5426C77.6184 9.5426 79.4366 9.5426 81.4116 9.5426C81.4116 10.2646 81.4116 10.8296 81.4116 11.5516C79.5934 11.5516 77.7438 11.5516 75.7689 11.5516C75.7689 12.7444 75.7689 13.7489 75.7689 15.0045C77.9006 15.0045 80.0322 15.0045 82.2893 15.0045C82.2893 15.8206 82.2893 16.417 82.2893 17.0762C79.3112 17.0762 76.4272 17.0762 73.4178 17.0762C73.4178 12.8386 73.4178 8.66368 73.4178 4.39462C76.3018 4.39462 79.1231 4.39462 82.1639 4.39462Z" fill="#006C40"/>
<path d="M19.9375 4.42601C19.9375 5.05381 19.9375 5.55605 19.9375 6.27803C19.3106 6.27803 18.7463 6.27803 18.182 6.27803C17.6178 6.27803 17.0535 6.27803 16.3011 6.27803C16.3011 9.91928 16.3011 13.435 16.3011 17.0762C15.4234 17.0762 14.7337 17.0762 13.856 17.0762C13.856 13.5291 13.856 10.0135 13.856 6.34081C12.5707 6.34081 11.4421 6.34081 10.1882 6.34081C10.1882 5.65023 10.1882 5.11659 10.1882 4.4574C13.4171 4.42601 16.6146 4.42601 19.9375 4.42601Z" fill="#006C40"/>
<path d="M123.951 3.04484C123.92 4.73991 122.697 5.93273 120.973 5.93273C119.218 5.93273 118.026 4.73991 118.026 3.01345C118.026 1.28699 119.374 -0.0627818 121.099 -1.5283e-06C122.76 0.0627787 123.951 1.34977 123.951 3.04484ZM123.199 2.91928C123.168 1.50673 122.133 0.502241 120.816 0.565021C119.594 0.627801 118.685 1.66368 118.685 3.01345C118.685 4.42601 119.688 5.3991 121.036 5.33632C122.321 5.27354 123.23 4.23767 123.199 2.91928Z" fill="#006C40"/>
<path d="M121.694 4.83408C121.443 4.33184 121.193 3.86098 120.942 3.32735C120.66 3.7982 120.44 4.1435 120.221 4.52018C120.127 4.48879 120.033 4.48879 119.939 4.4574C119.939 3.4843 119.939 2.51121 119.939 1.50672C121.945 1.00448 122.29 1.28699 122.008 3.20179C121.945 3.60986 122.133 4.04933 122.196 4.4574C122.039 4.58296 121.851 4.70852 121.694 4.83408Z" fill="#006C40"/>
</g>
<defs>
<clipPath id="clip0_154_335">
<rect width="123.951" height="21" fill="white"/>
</clipPath>
</defs>
</svg>
