<svg width="272" height="208" viewBox="0 0 272 208" fill="none" xmlns="http://www.w3.org/2000/svg">
<g filter="url(#filter0_d_31_417)">
<path d="M135.583 114.167C165.729 114.167 190.167 89.7291 190.167 59.5835C190.167 29.4378 165.729 5 135.583 5C105.438 5 81 29.4378 81 59.5835C81 89.7291 105.438 114.167 135.583 114.167Z" fill="white"/>
<path d="M154.112 56.245C151.942 59.7504 156.616 62.0873 155.781 65.5926C151.942 65.5926 148.27 62.5881 144.263 65.0919C142.093 66.928 139.089 67.2619 137.086 69.098C133.08 72.4364 133.413 77.611 132.245 82.1179C131.577 83.1194 130.91 83.9541 129.407 83.2864C128.907 79.9479 130.743 76.2757 127.738 73.438C125.902 70.6003 127.07 66.928 125.234 63.9234C125.067 61.5865 127.07 60.0842 127.07 57.9142C127.571 54.7427 124.734 51.9051 125.735 48.7335C126.403 48.0658 127.07 47.3982 127.905 46.7305C131.744 48.0658 135.417 50.2358 139.59 48.2328C141.092 48.9005 141.926 50.2358 142.427 51.7381C142.26 55.2435 143.763 56.5789 147.268 56.4119C149.438 56.0781 151.775 54.9096 154.112 56.245Z" fill="#FAFCF9"/>
<path d="M106.372 59.9173C106.205 55.5773 106.205 51.2374 106.038 46.8974C107.374 44.7274 107.207 42.5574 105.871 40.5544C104.202 36.5482 107.04 34.879 109.711 33.2098C117.389 28.536 125.067 29.3706 134.248 32.3752C129.741 34.7121 126.069 36.7152 122.564 38.5513C120.561 40.3874 117.723 41.5559 116.888 44.5605C116.054 47.8989 113.55 50.4028 112.715 53.7412C112.047 55.5773 111.38 57.2466 110.211 58.7488C109.21 59.7504 108.041 60.7519 106.372 59.9173Z" fill="#C4D54C"/>
<path d="M149.271 85.1225C143.429 92.3001 139.59 93.6355 129.24 91.9663C128.406 94.9709 132.412 93.8024 132.746 95.8055C123.398 99.8116 114.051 91.1317 112.882 76.9433C116.888 79.1133 120.727 81.1164 124.567 83.1194C130.743 84.6217 136.919 84.4548 143.095 83.4533C145.265 83.2864 147.435 83.2864 149.271 85.1225Z" fill="#1B7E52"/>
<path d="M167.799 46.8974C173.642 48.2328 172.473 52.9066 172.139 56.7458C171.639 62.4211 168.467 66.928 161.623 73.2711C160.288 66.5942 162.124 59.7504 159.119 53.9081C156.115 50.7366 154.279 47.0643 153.444 42.7244C153.778 39.8867 155.28 38.8851 157.951 40.2205C161.623 41.7228 163.96 44.5605 164.628 48.3997C166.798 50.4028 166.631 47.3982 167.799 46.8974Z" fill="#89C05A"/>
<path d="M125.902 63.5896C131.243 66.0934 128.239 69.9326 127.571 73.438C119.893 76.6095 115.386 74.4395 110.879 65.2588C109.711 63.7565 109.21 62.2542 109.377 60.4181C110.044 58.5819 110.211 56.0781 113.049 55.9112C115.553 56.0781 117.389 57.9142 119.559 58.9158C121.896 60.2511 124.4 61.2527 125.902 63.5896Z" fill="#C4D54C"/>
<path d="M143.095 63.5896C147.769 61.2527 152.276 59.9173 155.781 65.5926C155.614 69.2649 155.948 73.1041 154.112 76.6095C151.775 82.6187 147.602 84.9556 141.259 82.6187C140.591 81.951 140.257 81.2833 140.257 80.2818C143.763 75.1072 140.424 68.9311 143.095 63.5896Z" fill="#268056"/>
<path d="M139.59 49.2343C134.248 54.7427 130.91 51.4043 127.905 46.5635C128.406 41.7228 131.744 39.5528 135.917 38.2175C140.09 37.5498 144.096 37.2159 148.269 37.049C152.943 43.7259 152.943 43.7259 145.265 47.8989C143.429 48.7335 141.593 49.4012 139.59 49.2343Z" fill="#8AC05B"/>
<path d="M125.735 48.7335C128.072 51.5712 129.574 54.9096 129.407 58.7488C126.737 62.4211 123.732 61.2527 120.561 59.5835C117.556 57.9142 114.384 56.4119 113.216 52.7397C114.051 48.5666 115.052 44.3936 120.894 46.8974C122.564 47.3982 124.066 48.0658 125.735 48.7335Z" fill="#CDDA69"/>
<path d="M154.112 56.245C151.274 57.0796 148.937 59.4165 145.599 58.7489C141.926 57.9142 139.089 56.7458 141.259 52.2389C142.093 48.9005 145.098 48.0658 147.602 46.8974C149.939 46.0628 152.276 44.5605 154.779 46.5636C155.948 49.2343 158.619 51.7381 155.781 54.9096C155.28 55.4104 154.779 55.9112 154.112 56.245Z" fill="#99C770"/>
<path d="M140.925 80.9495C146.934 84.121 150.273 79.6141 154.112 76.4426C153.945 80.1148 154.279 84.121 149.104 85.1225C147.101 85.1225 145.098 85.2894 142.928 85.2894C141.092 86.124 140.424 84.9556 139.923 83.4533C140.09 82.6187 140.257 81.7841 140.925 80.9495Z" fill="#94C3AF"/>
<path d="M140.925 83.2864C141.593 83.954 142.427 84.6217 143.095 85.4563C136.585 87.9602 130.409 86.2909 124.4 83.4533C126.069 83.4533 127.738 83.4533 129.407 83.4533C130.075 82.9525 130.576 82.2848 131.243 81.7841C134.749 80.4487 137.92 81.1164 140.925 83.2864Z" fill="#8BBEA8"/>
<path d="M121.061 46.7305C115.72 46.3966 114.718 49.7351 114.384 54.075C114.718 54.9096 114.551 55.4104 113.717 55.7443C112.548 55.4104 111.714 54.9097 111.38 53.7412C110.712 49.4012 114.217 46.8974 116.054 43.8928C116.554 42.8913 117.222 42.8913 117.723 43.8928C118.891 44.7274 120.06 45.7289 121.061 46.7305Z" fill="#E8EDBA"/>
<path d="M147.435 38.2175C143.596 38.2175 139.59 38.2175 135.75 38.2175C140.758 36.5482 145.766 33.5436 151.274 36.5482C151.107 37.7167 150.439 38.5513 149.438 39.0521C148.603 39.0521 148.103 38.8851 147.435 38.2175Z" fill="#BBD9A2"/>
<path d="M155.781 54.9096C156.783 52.072 154.613 49.902 154.279 47.2312C153.611 46.5635 153.11 45.562 153.277 44.5605C153.444 43.8928 153.778 43.392 154.279 43.0582C156.449 46.3966 159.119 49.5681 158.953 53.9081C157.951 54.075 156.949 54.4089 155.781 54.9096Z" fill="#C1DCAA"/>
<path d="M149.438 38.3844C150.106 37.7167 150.773 37.049 151.274 36.5482C153.778 37.049 156.282 37.8836 157.951 40.0536C156.115 40.2205 154.613 40.7213 154.446 43.0582C154.446 43.392 154.446 43.559 154.446 43.8928C150.94 43.559 150.94 40.3874 149.438 38.3844Z" fill="#9BC874"/>
<path d="M111.046 60.0842C111.046 61.7534 111.046 63.5896 110.879 65.2588C107.374 65.0919 106.706 62.5881 106.372 59.9173C107.207 59.4165 108.208 58.9158 109.043 58.2481C110.211 58.415 110.378 59.5835 111.046 60.0842Z" fill="#D8E189"/>
<path d="M105.871 40.5544C112.715 42.5574 106.539 44.7274 106.038 46.8974C106.038 44.7274 104.202 42.7243 105.871 40.5544Z" fill="#F1F5DA"/>
<path d="M167.799 46.8974C167.299 48.9005 168.801 51.9051 166.297 52.4058C163.626 52.9066 164.628 49.902 164.628 48.2328C165.629 47.732 166.631 47.3982 167.799 46.8974Z" fill="#CAE1B5"/>
<path d="M117.89 43.7259C117.389 43.7259 116.721 43.7259 116.221 43.7259C117.389 40.7213 119.225 38.7182 122.564 38.3844C121.061 40.2205 119.392 41.8897 117.89 43.7259Z" fill="#CDDA69"/>
<path d="M140.925 83.2864C137.587 83.1194 134.081 84.2879 131.077 81.7841C130.242 76.1087 130.576 70.9341 136.084 67.4288C139.923 66.5942 140.758 69.5988 142.093 72.1026C142.594 73.7718 142.594 75.441 142.26 77.2772C141.927 78.4456 141.593 79.781 140.758 80.7825C140.758 80.7825 140.758 81.2833 140.758 81.1164C140.925 81.7841 140.925 82.4518 140.925 83.2864Z" fill="#228258"/>
<path d="M140.925 80.6156C140.925 79.2802 141.092 78.1118 141.092 76.7764C142.26 75.2741 141.926 73.6049 141.76 72.1026C141.593 70.0995 141.259 72.7703 140.758 72.1026C139.423 70.2665 138.922 67.5957 136.084 67.4288C137.587 64.5911 141.259 65.9265 142.928 63.7565C142.761 69.2649 147.101 75.608 140.925 80.6156Z" fill="#EBF5F1"/>
<path d="M120.894 58.5819C123.732 58.9158 126.57 61.0858 129.407 58.5819C129.574 61.2527 126.904 61.7534 125.902 63.5896C123.231 63.2557 121.061 62.2542 119.225 60.2511C118.891 58.7488 119.225 57.9142 120.894 58.5819Z" fill="#FBFBF1"/>
<path d="M147.435 48.2328C145.432 49.5681 143.262 50.9035 141.259 52.2389C140.758 51.2374 140.09 50.2358 139.59 49.4012C140.925 48.0658 142.26 46.7305 144.43 46.8974C146.1 45.7289 147.435 45.3951 147.435 48.2328Z" fill="#FAFCF8"/>
<path d="M111.046 60.0842C110.378 59.4165 109.711 58.9158 109.043 58.2481C109.877 56.7458 110.545 55.0766 111.38 53.5743C112.381 54.075 113.383 54.5758 114.384 55.2435C114.718 55.9112 114.718 56.4119 114.217 57.0796C111.881 56.5789 111.38 58.2481 111.046 60.0842Z" fill="#ECF0C7"/>
<path d="M114.217 57.0796C114.217 56.4119 114.384 55.9112 114.384 55.2435C114.384 54.9096 114.384 54.4089 114.384 54.075C116.554 55.5773 118.724 57.0796 120.894 58.5819C120.394 59.0827 119.726 59.7504 119.225 60.2511C116.888 60.4181 115.386 59.0827 114.217 57.0796Z" fill="#F5F7E2"/>
<path d="M147.435 48.2328C146.433 47.732 145.432 47.2312 144.263 46.7305C147.602 44.7274 152.276 43.2251 147.435 38.2175C148.103 38.2175 148.77 38.3844 149.438 38.3844C151.107 40.2205 152.776 41.8897 154.446 43.7259C154.446 44.8943 154.446 46.0628 154.446 47.0643C151.775 46.2297 149.772 47.8989 147.435 48.2328Z" fill="#D9E9CA"/>
<path d="M140.925 72.1026C141.092 71.6018 141.092 70.9341 141.426 70.6003C142.093 69.7657 142.594 70.0995 142.761 70.9341C142.761 72.9372 143.262 75.1072 141.259 76.6095C141.092 75.2741 140.925 73.6049 140.925 72.1026Z" fill="#F8FBF9"/>
</g>
<g clip-path="url(#clip0_31_417)">
<path d="M1.92269 194.454C4.73807 194.454 7.62211 194.592 10.4375 194.454C13.0469 194.317 15.5189 193.767 15.9996 190.466C16.4116 187.235 15.1069 185.309 11.5362 184.209C9.88815 183.728 8.24012 183.315 6.66077 182.697C1.37335 180.703 -0.343344 177.952 0.137331 172.451C0.480669 167.845 3.84539 164.063 8.44613 163.238C10.0942 162.894 11.8795 162.825 13.5962 162.825C91.0534 162.825 168.511 162.825 245.968 162.756C249.264 162.756 250.775 163.925 251.393 167.432C249.882 167.432 248.44 167.432 246.998 167.432C169.541 167.432 92.0834 167.432 14.6262 167.501C12.5662 167.501 10.1628 167.845 8.44613 168.807C4.80674 170.801 5.15007 175.408 8.9268 177.127C11.1928 178.158 13.5962 178.915 15.9309 179.877C20.1883 181.734 21.8363 185.172 21.4243 190.948C21.1497 194.867 18.609 198.167 14.5576 198.924C11.4675 199.543 8.10279 199.818 5.08141 199.405C3.63939 199.199 2.47203 196.792 1.23601 195.417C1.44202 195.073 1.64802 194.798 1.92269 194.454Z" fill="#006C40"/>
<path d="M255.65 176.302C252.491 176.302 249.607 176.164 246.723 176.302C243.839 176.439 241.436 177.54 241.161 180.771C240.886 183.865 242.672 185.653 245.487 186.547C247.135 187.028 248.783 187.372 250.431 187.991C255.581 189.779 257.847 193.217 257.229 198.099C256.611 203.462 252.835 207.381 247.753 207.862C246.723 208 245.693 207.931 244.663 207.931C166.863 207.931 89.062 207.931 11.2615 208C7.82809 208 6.24873 206.831 5.9054 203.187C7.27875 203.187 8.6521 203.187 9.95679 203.187C87.2767 203.187 164.665 203.187 241.985 203.187C243.015 203.187 244.045 203.187 245.075 203.187C248.577 203.118 250.912 201.33 251.255 198.442C251.667 195.211 249.607 193.973 247.066 193.079C245.556 192.529 244.114 191.773 242.603 191.36C236.629 189.71 235.256 184.484 236.011 179.465C236.698 174.239 239.925 171.764 245.83 171.351C247.066 171.283 248.371 171.42 249.607 171.214C253.453 170.526 255.032 172.52 255.65 176.302Z" fill="#006C40"/>
<path d="M128.203 171.695C128.203 181.046 128.203 190.123 128.203 199.474C126.623 199.474 125.181 199.474 123.327 199.474C123.327 193.904 123.327 188.335 123.327 182.765C123.053 182.697 122.778 182.628 122.503 182.559C120.993 186.203 119.619 189.985 117.903 193.492C117.353 194.661 115.98 195.761 114.744 196.242C112.684 196.999 112.066 195.211 111.448 193.698C109.868 189.985 108.358 186.272 106.023 182.697C106.023 188.197 106.023 193.698 106.023 199.405C104.238 199.405 102.796 199.405 101.216 199.405C101.216 190.191 101.216 181.046 101.216 171.97C106.641 170.526 107.328 170.87 109.319 175.821C110.967 180.015 112.752 184.209 114.812 189.16C116.735 184.347 118.383 180.29 120.031 176.302C122.091 171.076 122.091 171.076 128.203 171.695Z" fill="#006C40"/>
<path d="M75.1225 199.199C75.1225 198.305 75.5345 197.067 75.0538 196.448C71.3457 191.223 72.6504 185.309 73.1311 179.809C73.6118 173.758 79.9292 169.907 86.1093 171.076C88.856 171.558 91.4654 173.208 94.2808 171.42C94.5554 171.283 95.1048 171.558 94.5554 171.901C94.8301 173.895 95.2421 175.889 95.2421 177.883C95.3108 182.972 95.8601 188.197 95.0361 193.148C94.2808 197.549 88.9247 200.299 83.9806 199.955C81.0966 199.886 78.2125 199.543 75.1225 199.199ZM88.856 177.333C84.736 174.583 79.7232 175.133 78.8992 178.709C78.0065 182.972 78.3499 187.51 78.1439 191.91C78.5559 191.979 78.8992 191.979 79.3112 192.048C82.4699 187.235 85.6286 182.353 88.856 177.333ZM81.0966 194.523C85.6286 196.311 89.886 194.867 90.3667 191.36C90.8474 187.991 90.4354 184.484 90.4354 180.015C87.002 185.447 84.1179 189.916 81.0966 194.523Z" fill="#006C40"/>
<path d="M134.383 171.42C138.503 171.42 142.417 171.42 146.262 171.42C149.764 171.42 152.923 172.039 154.434 175.752C155.944 179.396 154.502 182.146 151.756 184.416C155.738 187.922 156.768 190.673 155.395 194.248C154.09 197.824 151.069 199.543 145.919 199.543C142.142 199.543 138.365 199.543 134.314 199.543C134.383 190.26 134.383 181.046 134.383 171.42ZM139.602 195.004C142.348 195.004 144.889 195.142 147.43 194.936C149.558 194.798 150.932 193.217 150.382 191.223C149.97 189.779 148.597 187.922 147.292 187.647C144.889 187.097 142.211 187.51 139.602 187.51C139.602 190.191 139.602 192.529 139.602 195.004ZM139.602 183.04C142.005 183.04 144.408 183.453 146.468 182.903C147.842 182.49 149.421 180.703 149.627 179.327C149.764 178.365 147.91 176.371 146.674 176.096C144.477 175.546 142.074 175.958 139.67 175.958C139.601 178.365 139.602 180.565 139.602 183.04Z" fill="#006C40"/>
<path d="M47.8614 171.558C52.3935 171.558 56.7195 171.351 60.9769 171.626C64.8223 171.901 67.6377 174.72 68.393 178.158C69.2857 182.215 67.6377 185.516 63.037 188.61C65.1657 192.048 67.2944 195.486 69.4917 198.993C64.891 200.299 64.5476 200.161 62.2129 196.448C61.3889 195.073 60.3589 193.836 59.6722 192.392C58.3676 189.573 56.3762 188.472 53.0115 189.573C53.0115 192.667 53.0115 195.898 53.0115 199.405C51.0888 199.405 49.5781 199.405 47.7927 199.405C47.8614 190.123 47.8614 180.909 47.8614 171.558ZM53.1488 185.584C56.7882 184.484 59.9469 183.797 62.625 182.422C63.243 182.078 63.243 178.571 62.3503 177.54C59.9469 174.652 56.4449 175.683 53.0801 175.889C53.1488 178.846 53.1488 181.459 53.1488 185.584Z" fill="#006C40"/>
<path d="M200.784 188.61C203.05 192.323 205.111 195.692 207.308 199.199C203.531 200.299 201.128 199.474 199.617 196.036C199.068 194.661 197.832 193.629 197.282 192.254C196.115 189.435 194.124 188.541 190.759 189.504C190.759 192.598 190.759 195.967 190.759 199.474C188.768 199.474 187.326 199.474 185.609 199.474C185.609 190.191 185.609 180.978 185.609 171.558C190.004 171.558 194.33 171.351 198.656 171.626C202.226 171.901 204.836 174.033 205.866 177.54C206.965 181.39 205.729 184.966 202.638 187.303C202.089 187.785 201.54 188.129 200.784 188.61ZM190.896 184.622C194.467 184.072 198.244 185.997 200.372 182.353C201.059 181.184 200.99 178.64 200.166 177.608C197.763 174.583 194.261 175.683 190.896 175.752C190.896 178.777 190.896 181.459 190.896 184.622Z" fill="#006C40"/>
<path d="M232.509 180.496C229.9 180.909 228.183 180.978 226.947 177.952C225.848 175.202 222.689 175.064 220.011 175.752C217.471 176.371 215.823 178.158 215.754 180.909C215.685 183.865 215.617 186.891 215.754 189.848C215.891 193.148 218.363 195.417 221.865 195.486C225.368 195.623 227.084 194.042 227.702 190.054C226.535 189.848 225.299 189.641 223.994 189.366C223.994 187.922 223.994 186.478 223.994 184.897C226.878 184.897 229.556 184.897 232.646 184.897C232.646 187.51 232.99 189.985 232.578 192.392C231.754 197.411 227.29 200.368 221.591 200.024C214.999 199.611 211.016 196.38 210.741 190.879C210.604 187.097 210.535 183.315 210.879 179.534C211.359 174.033 216.715 170.32 222.827 170.87C229.488 171.558 232.784 174.72 232.509 180.496Z" fill="#006C40"/>
<path d="M179.978 171.626C179.978 173.07 179.978 174.239 179.978 175.821C175.309 175.821 170.777 175.821 165.97 175.821C165.97 178.296 165.97 180.359 165.97 182.903C170.021 182.903 174.004 182.903 178.33 182.903C178.33 184.484 178.33 185.722 178.33 187.303C174.347 187.303 170.296 187.303 165.97 187.303C165.97 189.916 165.97 192.117 165.97 194.867C170.639 194.867 175.309 194.867 180.253 194.867C180.253 196.655 180.253 197.961 180.253 199.405C173.729 199.405 167.412 199.405 160.82 199.405C160.82 190.123 160.82 180.978 160.82 171.626C167.137 171.626 173.317 171.626 179.978 171.626Z" fill="#006C40"/>
<path d="M43.6727 171.695C43.6727 173.07 43.6727 174.17 43.6727 175.752C42.2993 175.752 41.0633 175.752 39.8273 175.752C38.5913 175.752 37.3553 175.752 35.7072 175.752C35.7072 183.728 35.7072 191.429 35.7072 199.405C33.7845 199.405 32.2738 199.405 30.3511 199.405C30.3511 191.635 30.3511 183.934 30.3511 175.889C27.5358 175.889 25.0637 175.889 22.317 175.889C22.317 174.377 22.317 173.208 22.317 171.764C29.3898 171.695 36.3939 171.695 43.6727 171.695Z" fill="#006C40"/>
<path d="M271.512 168.67C271.444 172.383 268.766 174.996 264.989 174.996C261.143 174.996 258.534 172.383 258.534 168.601C258.534 164.819 261.487 161.862 265.263 162C268.903 162.138 271.512 164.957 271.512 168.67ZM269.864 168.395C269.796 165.3 267.53 163.1 264.645 163.238C261.967 163.375 259.976 165.644 259.976 168.601C259.976 171.695 262.173 173.827 265.126 173.689C267.942 173.552 269.933 171.283 269.864 168.395Z" fill="#006C40"/>
<path d="M266.568 172.589C266.019 171.489 265.469 170.457 264.92 169.288C264.302 170.32 263.821 171.076 263.341 171.901C263.135 171.833 262.929 171.833 262.723 171.764C262.723 169.632 262.723 167.501 262.723 165.3C267.118 164.2 267.873 164.819 267.255 169.013C267.118 169.907 267.53 170.87 267.667 171.764C267.324 172.039 266.912 172.314 266.568 172.589Z" fill="#006C40"/>
</g>
<defs>
<filter id="filter0_d_31_417" x="76" y="0" width="119.167" height="119.167" filterUnits="userSpaceOnUse" color-interpolation-filters="sRGB">
<feFlood flood-opacity="0" result="BackgroundImageFix"/>
<feColorMatrix in="SourceAlpha" type="matrix" values="0 0 0 0 0 0 0 0 0 0 0 0 0 0 0 0 0 0 127 0" result="hardAlpha"/>
<feOffset/>
<feGaussianBlur stdDeviation="2.5"/>
<feComposite in2="hardAlpha" operator="out"/>
<feColorMatrix type="matrix" values="0 0 0 0 0 0 0 0 0 0 0 0 0 0 0 0 0 0 0.5 0"/>
<feBlend mode="normal" in2="BackgroundImageFix" result="effect1_dropShadow_31_417"/>
<feBlend mode="normal" in="SourceGraphic" in2="effect1_dropShadow_31_417" result="shape"/>
</filter>
<clipPath id="clip0_31_417">
<rect width="271.512" height="46" fill="white" transform="translate(0 162)"/>
</clipPath>
</defs>
</svg>
