<svg width="272" height="46" viewBox="0 0 272 46" fill="none" xmlns="http://www.w3.org/2000/svg">
<path d="M1.92269 32.4544C4.73807 32.4544 7.62211 32.5919 10.4375 32.4544C13.0469 32.3169 15.5189 31.7668 15.9996 28.4664C16.4116 25.2347 15.1069 23.3094 11.5362 22.2093C9.88815 21.7279 8.24012 21.3154 6.66077 20.6966C1.37335 18.7025 -0.343344 15.9522 0.137331 10.4514C0.480669 5.84454 3.84539 2.06278 8.44613 1.23766C10.0942 0.893866 11.8795 0.825107 13.5962 0.825107C91.0534 0.825107 168.511 0.825107 245.968 0.756348C249.264 0.756348 250.775 1.92526 251.393 5.43198C249.882 5.43198 248.44 5.43198 246.998 5.43198C169.541 5.43198 92.0834 5.43198 14.6262 5.50074C12.5662 5.50074 10.1628 5.84454 8.44613 6.80717C4.80674 8.80119 5.15008 13.4081 8.9268 15.1271C11.1928 16.1584 13.5962 16.9148 15.9309 17.8774C20.1883 19.7339 21.8363 23.1719 21.4243 28.9477C21.1497 32.867 18.609 36.1674 14.5576 36.9238C11.4675 37.5426 8.10279 37.8176 5.08141 37.4051C3.63939 37.1988 2.47203 34.7922 1.23601 33.417C1.44202 33.0732 1.64802 32.7982 1.92269 32.4544Z" fill="#006C40"/>
<path d="M255.65 14.3019C252.491 14.3019 249.607 14.1644 246.723 14.3019C243.839 14.4395 241.436 15.5396 241.161 18.7713C240.886 21.8655 242.672 23.6532 245.487 24.5471C247.135 25.0284 248.783 25.3722 250.431 25.991C255.581 27.7788 257.847 31.2167 257.229 36.0987C256.611 41.4619 252.835 45.3812 247.753 45.8625C246.723 46 245.693 45.9312 244.663 45.9312C166.863 45.9312 89.0621 45.9312 11.2615 46C7.82812 46 6.24876 44.8311 5.90543 41.1868C7.27878 41.1868 8.65214 41.1868 9.95682 41.1868C87.2767 41.1868 164.665 41.1868 241.985 41.1868C243.015 41.1868 244.045 41.1868 245.075 41.1868C248.577 41.1181 250.912 39.3303 251.255 36.4424C251.667 33.2108 249.607 31.9731 247.067 31.0792C245.556 30.5291 244.114 29.7728 242.603 29.3602C236.629 27.71 235.256 22.4843 236.011 17.4649C236.698 12.2392 239.925 9.76383 245.831 9.35127C247.067 9.28251 248.371 9.42003 249.607 9.21375C253.453 8.52616 255.032 10.5202 255.65 14.3019Z" fill="#006C40"/>
<path d="M128.203 9.69507C128.203 19.0463 128.203 28.1226 128.203 37.4738C126.623 37.4738 125.181 37.4738 123.327 37.4738C123.327 31.9043 123.327 26.3348 123.327 20.7653C123.053 20.6966 122.778 20.6278 122.503 20.559C120.993 24.2033 119.619 27.9851 117.903 31.4918C117.353 32.6607 115.98 33.7608 114.744 34.2422C112.684 34.9985 112.066 33.2108 111.448 31.6981C109.868 27.9851 108.358 24.2721 106.023 20.6966C106.023 26.1973 106.023 31.6981 106.023 37.4051C104.238 37.4051 102.796 37.4051 101.216 37.4051C101.216 28.1913 101.216 19.0463 101.216 9.97011C106.641 8.52616 107.328 8.86996 109.319 13.8206C110.967 18.015 112.752 22.2093 114.812 27.1599C116.735 22.3468 118.383 18.29 120.031 14.3019C122.091 9.07624 122.091 9.07624 128.203 9.69507Z" fill="#006C40"/>
<path d="M75.1225 37.1988C75.1225 36.3049 75.5345 35.0673 75.0538 34.4484C71.3457 29.2227 72.6504 23.3094 73.1311 17.8087C73.6118 11.7578 79.9292 7.90732 86.1093 9.07623C88.856 9.55755 91.4654 11.2078 94.2808 9.42003C94.5554 9.28251 95.1048 9.55755 94.5554 9.90134C94.8301 11.8954 95.2421 13.8894 95.2421 15.8834C95.3108 20.9716 95.8601 26.1973 95.0361 31.148C94.2808 35.5486 88.9247 38.299 83.9806 37.9552C81.0966 37.8864 78.2125 37.5426 75.1225 37.1988ZM88.856 15.3333C84.736 12.583 79.7232 13.133 78.8992 16.7085C78.0065 20.9716 78.3499 25.5097 78.1439 29.9103C78.5559 29.9791 78.8992 29.9791 79.3112 30.0478C82.4699 25.2347 85.6286 20.3528 88.856 15.3333ZM81.0966 32.5232C85.6286 34.3109 89.886 32.867 90.3667 29.3602C90.8474 25.991 90.4354 22.4843 90.4354 18.0149C87.002 23.4469 84.1179 27.9163 81.0966 32.5232Z" fill="#006C40"/>
<path d="M134.383 9.42003C138.503 9.42003 142.417 9.42003 146.262 9.42003C149.764 9.42003 152.923 10.0389 154.434 13.7519C155.944 17.3961 154.502 20.1465 151.756 22.4155C155.738 25.9223 156.768 28.6726 155.395 32.2481C154.09 35.8236 151.069 37.5426 145.919 37.5426C142.142 37.5426 138.365 37.5426 134.314 37.5426C134.383 28.2601 134.383 19.0463 134.383 9.42003ZM139.602 33.0045C142.348 33.0045 144.889 33.142 147.43 32.9357C149.558 32.7982 150.932 31.2167 150.382 29.2227C149.97 27.7788 148.597 25.9223 147.292 25.6472C144.889 25.0972 142.211 25.5097 139.602 25.5097C139.602 28.1913 139.602 30.5291 139.602 33.0045ZM139.602 21.0404C142.005 21.0404 144.408 21.4529 146.468 20.9028C147.842 20.4903 149.421 18.7025 149.627 17.3274C149.764 16.3647 147.91 14.3707 146.674 14.0957C144.477 13.5456 142.074 13.9581 139.67 13.9581C139.601 16.3647 139.602 18.565 139.602 21.0404Z" fill="#006C40"/>
<path d="M47.8614 9.55755C52.3935 9.55755 56.7195 9.35127 60.9769 9.62631C64.8223 9.90135 67.6377 12.7205 68.393 16.1584C69.2857 20.2153 67.6377 23.5157 63.037 26.6099C65.1657 30.0478 67.2944 33.4858 69.4917 36.9925C64.891 38.299 64.5477 38.1614 62.2129 34.4484C61.3889 33.0732 60.3589 31.8356 59.6722 30.3916C58.3676 27.5725 56.3762 26.4724 53.0115 27.5725C53.0115 30.6667 53.0115 33.8984 53.0115 37.4051C51.0888 37.4051 49.5781 37.4051 47.7927 37.4051C47.8614 28.1226 47.8614 18.9088 47.8614 9.55755ZM53.1488 23.5845C56.7882 22.4843 59.9469 21.7967 62.625 20.4215C63.243 20.0777 63.243 16.571 62.3503 15.5396C59.9469 12.6517 56.4449 13.6831 53.0801 13.8894C53.1488 16.846 53.1488 19.4589 53.1488 23.5845Z" fill="#006C40"/>
<path d="M200.784 26.6099C203.05 30.3229 205.111 33.6921 207.308 37.1988C203.531 38.299 201.128 37.4738 199.617 34.0359C199.068 32.6607 197.832 31.6293 197.282 30.2541C196.115 27.435 194.124 26.5411 190.759 27.5037C190.759 30.5979 190.759 33.9671 190.759 37.4738C188.768 37.4738 187.326 37.4738 185.609 37.4738C185.609 28.1913 185.609 18.9776 185.609 9.55755C190.004 9.55755 194.33 9.35127 198.656 9.62631C202.226 9.90135 204.836 12.0329 205.866 15.5396C206.965 19.3901 205.729 22.9656 202.638 25.3034C202.089 25.7848 201.54 26.1286 200.784 26.6099ZM190.896 22.6218C194.467 22.0718 198.244 23.997 200.372 20.3528C201.059 19.1839 200.99 16.6398 200.166 15.6084C197.763 12.583 194.261 13.6831 190.896 13.7519C190.896 16.7773 190.896 19.4589 190.896 22.6218Z" fill="#006C40"/>
<path d="M232.509 18.4963C229.9 18.9088 228.183 18.9776 226.947 15.9522C225.848 13.2018 222.689 13.0643 220.011 13.7519C217.471 14.3707 215.823 16.1584 215.754 18.9088C215.685 21.8655 215.617 24.8909 215.754 27.8475C215.891 31.148 218.363 33.417 221.865 33.4858C225.368 33.6233 227.084 32.0419 227.702 28.0538C226.535 27.8475 225.299 27.6413 223.994 27.3662C223.994 25.9223 223.994 24.4783 223.994 22.8969C226.878 22.8969 229.556 22.8969 232.646 22.8969C232.646 25.5097 232.99 27.9851 232.578 30.3916C231.754 35.4111 227.29 38.3677 221.591 38.0239C214.999 37.6114 211.016 34.3797 210.741 28.8789C210.604 25.0972 210.535 21.3154 210.879 17.5336C211.359 12.0329 216.715 8.31988 222.827 8.86996C229.488 9.55755 232.784 12.7205 232.509 18.4963Z" fill="#006C40"/>
<path d="M179.978 9.62631C179.978 11.0703 179.978 12.2392 179.978 13.8206C175.309 13.8206 170.777 13.8206 165.97 13.8206C165.97 16.296 165.97 18.3587 165.97 20.9028C170.021 20.9028 174.004 20.9028 178.33 20.9028C178.33 22.4843 178.33 23.722 178.33 25.3034C174.347 25.3034 170.296 25.3034 165.97 25.3034C165.97 27.9163 165.97 30.1166 165.97 32.867C170.639 32.867 175.309 32.867 180.253 32.867C180.253 34.6547 180.253 35.9611 180.253 37.4051C173.729 37.4051 167.412 37.4051 160.82 37.4051C160.82 28.1226 160.82 18.9776 160.82 9.62631C167.137 9.62631 173.317 9.62631 179.978 9.62631Z" fill="#006C40"/>
<path d="M43.6727 9.69507C43.6727 11.0703 43.6727 12.1704 43.6727 13.7519C42.2993 13.7519 41.0633 13.7519 39.8273 13.7519C38.5913 13.7519 37.3553 13.7519 35.7072 13.7519C35.7072 21.728 35.7072 29.429 35.7072 37.4051C33.7845 37.4051 32.2738 37.4051 30.3511 37.4051C30.3511 29.6353 30.3511 21.9342 30.3511 13.8894C27.5358 13.8894 25.0637 13.8894 22.317 13.8894C22.317 12.3767 22.317 11.2078 22.317 9.76383C29.3898 9.69507 36.3939 9.69507 43.6727 9.69507Z" fill="#006C40"/>
<path d="M271.512 6.66966C271.444 10.3827 268.766 12.9955 264.989 12.9955C261.143 12.9955 258.534 10.3827 258.534 6.6009C258.534 2.81913 261.487 -0.137518 265.263 1.01171e-06C268.903 0.13752 271.512 2.95665 271.512 6.66966ZM269.864 6.39462C269.796 3.30045 267.53 1.10015 264.645 1.23767C261.967 1.37519 259.976 3.64425 259.976 6.6009C259.976 9.69507 262.173 11.8266 265.126 11.6891C267.942 11.5516 269.933 9.28251 269.864 6.39462Z" fill="#006C40"/>
<path d="M266.568 10.5889C266.019 9.48879 265.469 8.4574 264.92 7.28849C264.302 8.31988 263.821 9.07624 263.341 9.90135C263.135 9.83259 262.929 9.83259 262.723 9.76383C262.723 7.63229 262.723 5.50075 262.723 3.30045C267.118 2.2003 267.873 2.81913 267.255 7.01345C267.118 7.90733 267.53 8.86996 267.667 9.76383C267.324 10.0389 266.912 10.3139 266.568 10.5889Z" fill="#006C40"/>
</svg>
