<svg width="21" height="24" viewBox="0 0 21 24" fill="none" xmlns="http://www.w3.org/2000/svg">
<path d="M3.35444 5.96739H17.6455C18.3938 5.96739 18.9744 6.62036 18.887 7.3635L17.1472 22.1461C17.0731 22.7756 16.5396 23.25 15.9058 23.25H5.09421C4.46037 23.25 3.92686 22.7756 3.85277 22.1461L2.11301 7.3635C2.02555 6.62036 2.60618 5.96739 3.35444 5.96739Z" stroke="#EDEDED" stroke-width="1.5"/>
<path d="M4.26279 11.2337C4.12291 10.0447 5.0519 9 6.24909 9H14.7509C15.9481 9 16.8771 10.0447 16.7372 11.2337L15.6784 20.2337C15.5599 21.2409 14.7063 22 13.6921 22H7.30791C6.29374 22 5.44011 21.2409 5.32161 20.2337L4.26279 11.2337Z" fill="#EDEDED"/>
<line x1="0.75" y1="3.42391" x2="20.25" y2="3.42391" stroke="#EDEDED" stroke-width="1.5" stroke-linecap="round"/>
<path d="M9 0.75H12C12.1381 0.75 12.25 0.861929 12.25 1V3C12.25 3.13807 12.1381 3.25 12 3.25H9C8.86193 3.25 8.75 3.13807 8.75 3V1C8.75 0.861929 8.86193 0.75 9 0.75Z" stroke="#EDEDED" stroke-width="1.5"/>
</svg>
