<svg width="381" height="343" viewBox="0 0 381 343" fill="none" xmlns="http://www.w3.org/2000/svg">
<path d="M370.286 171.5C370.286 259.765 290.774 333 190.509 333C90.2447 333 10.7327 259.765 10.7327 171.5C10.7327 83.2346 90.2447 10 190.509 10C290.774 10 370.286 83.2346 370.286 171.5Z" fill="white" stroke="#EBF8F2" stroke-width="20"/>
<path d="M305.59 173.296C305.59 229.272 255.043 276.33 190.51 276.33C125.976 276.33 75.4295 229.272 75.4295 173.296C75.4295 117.321 125.976 70.262 190.51 70.262C255.043 70.262 305.59 117.321 305.59 173.296Z" fill="white" stroke="#EBF8F2" stroke-width="20"/>
<path d="M257 173C257 204.639 228.223 232 190.5 232C152.777 232 124 204.639 124 173C124 141.361 152.777 114 190.5 114C228.223 114 257 141.361 257 173Z" fill="white" stroke="#EBF8F2" stroke-width="20"/>
</svg>
