<svg width="80" height="90" viewBox="0 0 76 99" fill="none" xmlns="http://www.w3.org/2000/svg">
<circle cx="25" cy="25" r="25" fill="white"/>
<circle cx="25" cy="25" r="24" stroke="#006C40" stroke-width="2"/>
<circle cx="25.0003" cy="24.9999" r="15.4773" stroke="#006C40" stroke-width="2"/>
<circle cx="24.9997" cy="25.0002" r="6.38636" stroke="#006C40" stroke-width="2"/>
<path d="M31.3015 40.682L39.4375 45.4944C40.9824 46.4082 41.494 48.4014 40.5802 49.9463L40.4633 50.1439C39.5349 51.7136 37.4917 52.2133 35.927 51.2558C33.2591 49.6231 30.8957 48.2296 27.9273 46.5332C26.3408 45.6266 25.7989 43.6009 26.7254 42.0346L26.8496 41.8246C27.7634 40.2797 29.7566 39.7681 31.3015 40.682Z" fill="white" stroke="#006C40" stroke-width="1.5"/>
<rect x="33.8621" y="22" width="30" height="62" rx="4" fill="white" stroke="#006C40" stroke-width="2"/>
<path d="M33.0091 50.1896C34.9909 51.5044 36.5597 52.5211 38.0859 53.4808C39.6418 54.4591 40.1065 56.5428 39.1123 58.0856C38.1357 59.6011 36.1042 60.0526 34.6021 59.0846L29.3671 55.7111C27.8583 54.7388 27.4234 52.7275 28.3957 51.2187L28.4518 51.1317C29.4366 49.6035 31.4876 49.1802 33.0091 50.1896Z" fill="white" stroke="#006C40" stroke-width="1.5"/>
<path d="M32.3912 57.8029L37.7151 61.3622C39.1625 62.3299 39.5514 64.2878 38.5837 65.7352C37.5591 67.2677 35.4213 67.6023 33.8925 66.4786C32.3291 65.3295 30.833 64.3371 29.0834 63.2833C27.4668 62.3098 26.9666 60.2108 27.9924 58.6767C28.9658 57.2207 30.9352 56.8295 32.3912 57.8029Z" fill="white" stroke="#006C40" stroke-width="1.5"/>
<rect x="31.7214" y="65.2476" width="9.35668" height="6.82924" rx="3.25" transform="rotate(32.4105 31.7214 65.2476)" fill="white" stroke="#006C40" stroke-width="1.5"/>
<line x1="41.5" y1="81.5" x2="56.5" y2="81.5" stroke="#006C40" stroke-linecap="round"/>
<line x1="44.5" y1="23.5" x2="53.5" y2="23.5" stroke="#006C40" stroke-width="3" stroke-linecap="round"/>
<path d="M62.25 46.7692L66 44V62H64.75L63.5 59.6923L61 51.8462L62.25 46.7692Z" fill="white"/>
<path d="M63.5 61.5C63.5 61.5 58.5 48.5 64.5 44.5C69 43 65.5 50.5 69.5022 58.0237C74.0022 68.0237 71.5022 81.5237 71.5022 86.5237C71.5022 91.5237 74.5022 94.5237 74.5022 94.5237" stroke="#006C40" stroke-width="1.5" stroke-linecap="square"/>
<path d="M41 84C42 88 42 89 46 93C50 97 50 98.1429 50 98.1429" stroke="#006C40" stroke-width="1.5" stroke-linecap="round"/>
</svg>
